<?xml version="1.0" encoding="utf-8" standalone="no"?>
<!DOCTYPE svg PUBLIC "-//W3C//DTD SVG 1.1//EN"
  "http://www.w3.org/Graphics/SVG/1.1/DTD/svg11.dtd">
<svg xmlns:xlink="http://www.w3.org/1999/xlink" width="460.8pt" height="345.6pt" viewBox="0 0 460.8 345.6" xmlns="http://www.w3.org/2000/svg" version="1.1">
 <metadata>
  <rdf:RDF xmlns:dc="http://purl.org/dc/elements/1.1/" xmlns:cc="http://creativecommons.org/ns#" xmlns:rdf="http://www.w3.org/1999/02/22-rdf-syntax-ns#">
   <cc:Work>
    <dc:type rdf:resource="http://purl.org/dc/dcmitype/StillImage"/>
    <dc:date>2024-08-27T15:58:52.910477</dc:date>
    <dc:format>image/svg+xml</dc:format>
    <dc:creator>
     <cc:Agent>
      <dc:title>Matplotlib v3.8.4, https://matplotlib.org/</dc:title>
     </cc:Agent>
    </dc:creator>
   </cc:Work>
  </rdf:RDF>
 </metadata>
 <defs>
  <style type="text/css">*{stroke-linejoin: round; stroke-linecap: butt}</style>
 </defs>
 <g id="figure_1">
  <g id="patch_1">
   <path d="M 0 345.6 
L 460.8 345.6 
L 460.8 0 
L 0 0 
z
" style="fill: #ffffff"/>
  </g>
  <g id="axes_1">
   <g id="patch_2">
    <path d="M 57.6 307.584 
L 414.72 307.584 
L 414.72 41.472 
L 57.6 41.472 
z
" style="fill: #ffffff"/>
   </g>
   <g id="patch_3">
    <path d="M 73.832727 307.584 
L 85.746656 307.584 
L 85.746656 54.144 
L 73.832727 54.144 
z
" clip-path="url(#p3b85d28be4)" style="fill: #1f77b4"/>
   </g>
   <g id="patch_4">
    <path d="M 88.725138 307.584 
L 100.639066 307.584 
L 100.639066 245.601391 
L 88.725138 245.601391 
z
" clip-path="url(#p3b85d28be4)" style="fill: #1f77b4"/>
   </g>
   <g id="patch_5">
    <path d="M 103.617548 307.584 
L 115.531476 307.584 
L 115.531476 277.281391 
L 103.617548 277.281391 
z
" clip-path="url(#p3b85d28be4)" style="fill: #1f77b4"/>
   </g>
   <g id="patch_6">
    <path d="M 118.509958 307.584 
L 130.423887 307.584 
L 130.423887 297.942261 
L 118.509958 297.942261 
z
" clip-path="url(#p3b85d28be4)" style="fill: #1f77b4"/>
   </g>
   <g id="patch_7">
    <path d="M 133.402369 307.584 
L 145.316297 307.584 
L 145.316297 297.942261 
L 133.402369 297.942261 
z
" clip-path="url(#p3b85d28be4)" style="fill: #1f77b4"/>
   </g>
   <g id="patch_8">
    <path d="M 148.294779 307.584 
L 160.208707 307.584 
L 160.208707 303.451826 
L 148.294779 303.451826 
z
" clip-path="url(#p3b85d28be4)" style="fill: #1f77b4"/>
   </g>
   <g id="patch_9">
    <path d="M 163.187189 307.584 
L 175.101118 307.584 
L 175.101118 303.451826 
L 163.187189 303.451826 
z
" clip-path="url(#p3b85d28be4)" style="fill: #1f77b4"/>
   </g>
   <g id="patch_10">
    <path d="M 178.0796 307.584 
L 189.993528 307.584 
L 189.993528 304.829217 
L 178.0796 304.829217 
z
" clip-path="url(#p3b85d28be4)" style="fill: #1f77b4"/>
   </g>
   <g id="patch_11">
    <path d="M 192.97201 307.584 
L 204.885938 307.584 
L 204.885938 302.074435 
L 192.97201 302.074435 
z
" clip-path="url(#p3b85d28be4)" style="fill: #1f77b4"/>
   </g>
   <g id="patch_12">
    <path d="M 207.86442 307.584 
L 219.778349 307.584 
L 219.778349 306.206609 
L 207.86442 306.206609 
z
" clip-path="url(#p3b85d28be4)" style="fill: #1f77b4"/>
   </g>
   <g id="patch_13">
    <path d="M 222.756831 307.584 
L 234.670759 307.584 
L 234.670759 306.206609 
L 222.756831 306.206609 
z
" clip-path="url(#p3b85d28be4)" style="fill: #1f77b4"/>
   </g>
   <g id="patch_14">
    <path d="M 237.649241 307.584 
L 249.563169 307.584 
L 249.563169 304.829217 
L 237.649241 304.829217 
z
" clip-path="url(#p3b85d28be4)" style="fill: #1f77b4"/>
   </g>
   <g id="patch_15">
    <path d="M 252.541651 307.584 
L 264.45558 307.584 
L 264.45558 307.584 
L 252.541651 307.584 
z
" clip-path="url(#p3b85d28be4)" style="fill: #1f77b4"/>
   </g>
   <g id="patch_16">
    <path d="M 267.434062 307.584 
L 279.34799 307.584 
L 279.34799 307.584 
L 267.434062 307.584 
z
" clip-path="url(#p3b85d28be4)" style="fill: #1f77b4"/>
   </g>
   <g id="patch_17">
    <path d="M 282.326472 307.584 
L 294.2404 307.584 
L 294.2404 307.584 
L 282.326472 307.584 
z
" clip-path="url(#p3b85d28be4)" style="fill: #1f77b4"/>
   </g>
   <g id="patch_18">
    <path d="M 297.218882 307.584 
L 309.132811 307.584 
L 309.132811 306.206609 
L 297.218882 306.206609 
z
" clip-path="url(#p3b85d28be4)" style="fill: #1f77b4"/>
   </g>
   <g id="patch_19">
    <path d="M 312.111293 307.584 
L 324.025221 307.584 
L 324.025221 304.829217 
L 312.111293 304.829217 
z
" clip-path="url(#p3b85d28be4)" style="fill: #1f77b4"/>
   </g>
   <g id="patch_20">
    <path d="M 327.003703 307.584 
L 338.917631 307.584 
L 338.917631 307.584 
L 327.003703 307.584 
z
" clip-path="url(#p3b85d28be4)" style="fill: #1f77b4"/>
   </g>
   <g id="patch_21">
    <path d="M 341.896113 307.584 
L 353.810042 307.584 
L 353.810042 307.584 
L 341.896113 307.584 
z
" clip-path="url(#p3b85d28be4)" style="fill: #1f77b4"/>
   </g>
   <g id="patch_22">
    <path d="M 356.788524 307.584 
L 368.702452 307.584 
L 368.702452 307.584 
L 356.788524 307.584 
z
" clip-path="url(#p3b85d28be4)" style="fill: #1f77b4"/>
   </g>
   <g id="patch_23">
    <path d="M 371.680934 307.584 
L 383.594862 307.584 
L 383.594862 306.206609 
L 371.680934 306.206609 
z
" clip-path="url(#p3b85d28be4)" style="fill: #1f77b4"/>
   </g>
   <g id="patch_24">
    <path d="M 386.573344 307.584 
L 398.487273 307.584 
L 398.487273 304.829217 
L 386.573344 304.829217 
z
" clip-path="url(#p3b85d28be4)" style="fill: #1f77b4"/>
   </g>
   <g id="matplotlib.axis_1">
    <g id="xtick_1">
     <g id="line2d_1">
      <defs>
       <path id="m12e26e90cc" d="M 0 0 
L 0 3.5 
" style="stroke: #000000; stroke-width: 0.8"/>
      </defs>
      <g>
       <use xlink:href="#m12e26e90cc" x="79.789691" y="307.584" style="stroke: #000000; stroke-width: 0.8"/>
      </g>
     </g>
     <g id="text_1">
      <!-- 0 -->
      <g transform="translate(77.014691 322.543375) scale(0.1 -0.1)">
       <defs>
        <path id="SourceHanSansCN-Regular-30" d="M 1779 -83 
C 2669 -83 3238 723 3238 2362 
C 3238 3987 2669 4774 1779 4774 
C 883 4774 320 3987 320 2362 
C 320 723 883 -83 1779 -83 
z
M 1779 390 
C 1248 390 883 986 883 2362 
C 883 3731 1248 4314 1779 4314 
C 2310 4314 2675 3731 2675 2362 
C 2675 986 2310 390 1779 390 
z
" transform="scale(0.015625)"/>
       </defs>
       <use xlink:href="#SourceHanSansCN-Regular-30"/>
      </g>
     </g>
    </g>
    <g id="xtick_2">
     <g id="line2d_2">
      <g>
       <use xlink:href="#m12e26e90cc" x="154.251743" y="307.584" style="stroke: #000000; stroke-width: 0.8"/>
      </g>
     </g>
     <g id="text_2">
      <!-- 5 -->
      <g transform="translate(151.476743 322.543375) scale(0.1 -0.1)">
       <defs>
        <path id="SourceHanSansCN-Regular-35" d="M 1677 -83 
C 2464 -83 3213 499 3213 1523 
C 3213 2560 2573 3021 1798 3021 
C 1517 3021 1306 2950 1094 2835 
L 1216 4192 
L 2982 4192 
L 2982 4691 
L 704 4691 
L 550 2502 
L 864 2304 
C 1133 2483 1331 2579 1645 2579 
C 2234 2579 2618 2182 2618 1510 
C 2618 826 2176 403 1619 403 
C 1075 403 730 653 467 922 
L 173 538 
C 493 224 941 -83 1677 -83 
z
" transform="scale(0.015625)"/>
       </defs>
       <use xlink:href="#SourceHanSansCN-Regular-35"/>
      </g>
     </g>
    </g>
    <g id="xtick_3">
     <g id="line2d_3">
      <g>
       <use xlink:href="#m12e26e90cc" x="228.713795" y="307.584" style="stroke: #000000; stroke-width: 0.8"/>
      </g>
     </g>
     <g id="text_3">
      <!-- 10 -->
      <g transform="translate(223.163795 322.543375) scale(0.1 -0.1)">
       <defs>
        <path id="SourceHanSansCN-Regular-31" d="M 563 0 
L 3136 0 
L 3136 486 
L 2195 486 
L 2195 4691 
L 1747 4691 
C 1491 4544 1190 4435 774 4358 
L 774 3987 
L 1613 3987 
L 1613 486 
L 563 486 
L 563 0 
z
" transform="scale(0.015625)"/>
       </defs>
       <use xlink:href="#SourceHanSansCN-Regular-31"/>
       <use xlink:href="#SourceHanSansCN-Regular-30" x="55.499985"/>
      </g>
     </g>
    </g>
    <g id="xtick_4">
     <g id="line2d_4">
      <g>
       <use xlink:href="#m12e26e90cc" x="303.175847" y="307.584" style="stroke: #000000; stroke-width: 0.8"/>
      </g>
     </g>
     <g id="text_4">
      <!-- 15 -->
      <g transform="translate(297.625847 322.543375) scale(0.1 -0.1)">
       <use xlink:href="#SourceHanSansCN-Regular-31"/>
       <use xlink:href="#SourceHanSansCN-Regular-35" x="55.499985"/>
      </g>
     </g>
    </g>
    <g id="xtick_5">
     <g id="line2d_5">
      <g>
       <use xlink:href="#m12e26e90cc" x="377.637898" y="307.584" style="stroke: #000000; stroke-width: 0.8"/>
      </g>
     </g>
     <g id="text_5">
      <!-- 20 -->
      <g transform="translate(372.087898 322.543375) scale(0.1 -0.1)">
       <defs>
        <path id="SourceHanSansCN-Regular-32" d="M 282 0 
L 3232 0 
L 3232 506 
L 1933 506 
C 1696 506 1408 480 1165 461 
C 2266 1504 3008 2458 3008 3398 
C 3008 4230 2477 4774 1638 4774 
C 1043 4774 634 4506 256 4090 
L 595 3757 
C 858 4070 1184 4301 1568 4301 
C 2150 4301 2432 3910 2432 3373 
C 2432 2566 1754 1632 282 346 
L 282 0 
z
" transform="scale(0.015625)"/>
       </defs>
       <use xlink:href="#SourceHanSansCN-Regular-32"/>
       <use xlink:href="#SourceHanSansCN-Regular-30" x="55.499985"/>
      </g>
     </g>
    </g>
   </g>
   <g id="matplotlib.axis_2">
    <g id="ytick_1">
     <g id="line2d_6">
      <defs>
       <path id="m666fa2680d" d="M 0 0 
L -3.5 0 
" style="stroke: #000000; stroke-width: 0.8"/>
      </defs>
      <g>
       <use xlink:href="#m666fa2680d" x="57.6" y="307.584" style="stroke: #000000; stroke-width: 0.8"/>
      </g>
     </g>
     <g id="text_6">
      <!-- 0 -->
      <g transform="translate(45.05 311.563687) scale(0.1 -0.1)">
       <use xlink:href="#SourceHanSansCN-Regular-30"/>
      </g>
     </g>
    </g>
    <g id="ytick_2">
     <g id="line2d_7">
      <g>
       <use xlink:href="#m666fa2680d" x="57.6" y="273.149217" style="stroke: #000000; stroke-width: 0.8"/>
      </g>
     </g>
     <g id="text_7">
      <!-- 25 -->
      <g transform="translate(39.5 277.128905) scale(0.1 -0.1)">
       <use xlink:href="#SourceHanSansCN-Regular-32"/>
       <use xlink:href="#SourceHanSansCN-Regular-35" x="55.499985"/>
      </g>
     </g>
    </g>
    <g id="ytick_3">
     <g id="line2d_8">
      <g>
       <use xlink:href="#m666fa2680d" x="57.6" y="238.714435" style="stroke: #000000; stroke-width: 0.8"/>
      </g>
     </g>
     <g id="text_8">
      <!-- 50 -->
      <g transform="translate(39.5 242.694122) scale(0.1 -0.1)">
       <use xlink:href="#SourceHanSansCN-Regular-35"/>
       <use xlink:href="#SourceHanSansCN-Regular-30" x="55.499985"/>
      </g>
     </g>
    </g>
    <g id="ytick_4">
     <g id="line2d_9">
      <g>
       <use xlink:href="#m666fa2680d" x="57.6" y="204.279652" style="stroke: #000000; stroke-width: 0.8"/>
      </g>
     </g>
     <g id="text_9">
      <!-- 75 -->
      <g transform="translate(39.5 208.25934) scale(0.1 -0.1)">
       <defs>
        <path id="SourceHanSansCN-Regular-37" d="M 1267 0 
L 1875 0 
C 1952 1837 2150 2931 3251 4339 
L 3251 4691 
L 314 4691 
L 314 4192 
L 2592 4192 
C 1670 2912 1350 1779 1267 0 
z
" transform="scale(0.015625)"/>
       </defs>
       <use xlink:href="#SourceHanSansCN-Regular-37"/>
       <use xlink:href="#SourceHanSansCN-Regular-35" x="55.499985"/>
      </g>
     </g>
    </g>
    <g id="ytick_5">
     <g id="line2d_10">
      <g>
       <use xlink:href="#m666fa2680d" x="57.6" y="169.84487" style="stroke: #000000; stroke-width: 0.8"/>
      </g>
     </g>
     <g id="text_10">
      <!-- 100 -->
      <g transform="translate(33.95 173.824557) scale(0.1 -0.1)">
       <use xlink:href="#SourceHanSansCN-Regular-31"/>
       <use xlink:href="#SourceHanSansCN-Regular-30" x="55.499985"/>
       <use xlink:href="#SourceHanSansCN-Regular-30" x="110.999969"/>
      </g>
     </g>
    </g>
    <g id="ytick_6">
     <g id="line2d_11">
      <g>
       <use xlink:href="#m666fa2680d" x="57.6" y="135.410087" style="stroke: #000000; stroke-width: 0.8"/>
      </g>
     </g>
     <g id="text_11">
      <!-- 125 -->
      <g transform="translate(33.95 139.389774) scale(0.1 -0.1)">
       <use xlink:href="#SourceHanSansCN-Regular-31"/>
       <use xlink:href="#SourceHanSansCN-Regular-32" x="55.499985"/>
       <use xlink:href="#SourceHanSansCN-Regular-35" x="110.999969"/>
      </g>
     </g>
    </g>
    <g id="ytick_7">
     <g id="line2d_12">
      <g>
       <use xlink:href="#m666fa2680d" x="57.6" y="100.975304" style="stroke: #000000; stroke-width: 0.8"/>
      </g>
     </g>
     <g id="text_12">
      <!-- 150 -->
      <g transform="translate(33.95 104.954992) scale(0.1 -0.1)">
       <use xlink:href="#SourceHanSansCN-Regular-31"/>
       <use xlink:href="#SourceHanSansCN-Regular-35" x="55.499985"/>
       <use xlink:href="#SourceHanSansCN-Regular-30" x="110.999969"/>
      </g>
     </g>
    </g>
    <g id="ytick_8">
     <g id="line2d_13">
      <g>
       <use xlink:href="#m666fa2680d" x="57.6" y="66.540522" style="stroke: #000000; stroke-width: 0.8"/>
      </g>
     </g>
     <g id="text_13">
      <!-- 175 -->
      <g transform="translate(33.95 70.520209) scale(0.1 -0.1)">
       <use xlink:href="#SourceHanSansCN-Regular-31"/>
       <use xlink:href="#SourceHanSansCN-Regular-37" x="55.499985"/>
       <use xlink:href="#SourceHanSansCN-Regular-35" x="110.999969"/>
      </g>
     </g>
    </g>
   </g>
   <g id="patch_25">
    <path d="M 57.6 307.584 
L 57.6 41.472 
" style="fill: none; stroke: #000000; stroke-width: 0.8; stroke-linejoin: miter; stroke-linecap: square"/>
   </g>
   <g id="patch_26">
    <path d="M 414.72 307.584 
L 414.72 41.472 
" style="fill: none; stroke: #000000; stroke-width: 0.8; stroke-linejoin: miter; stroke-linecap: square"/>
   </g>
   <g id="patch_27">
    <path d="M 57.6 307.584 
L 414.72 307.584 
" style="fill: none; stroke: #000000; stroke-width: 0.8; stroke-linejoin: miter; stroke-linecap: square"/>
   </g>
   <g id="patch_28">
    <path d="M 57.6 41.472 
L 414.72 41.472 
" style="fill: none; stroke: #000000; stroke-width: 0.8; stroke-linejoin: miter; stroke-linecap: square"/>
   </g>
   <g id="text_14">
    <!-- 184 -->
    <g transform="translate(71.464691 51.853375) scale(0.1 -0.1)">
     <defs>
      <path id="SourceHanSansCN-Regular-38" d="M 1792 -83 
C 2669 -83 3258 448 3258 1126 
C 3258 1773 2880 2125 2470 2362 
L 2470 2394 
C 2746 2611 3091 3034 3091 3526 
C 3091 4250 2605 4762 1805 4762 
C 1075 4762 518 4282 518 3571 
C 518 3078 813 2726 1152 2490 
L 1152 2464 
C 723 2234 294 1792 294 1165 
C 294 442 922 -83 1792 -83 
z
M 2112 2547 
C 1555 2765 1050 3014 1050 3571 
C 1050 4026 1363 4326 1798 4326 
C 2298 4326 2592 3962 2592 3494 
C 2592 3149 2426 2829 2112 2547 
z
M 1798 352 
C 1235 352 813 717 813 1216 
C 813 1664 1082 2035 1459 2278 
C 2125 2010 2701 1779 2701 1146 
C 2701 678 2342 352 1798 352 
z
" transform="scale(0.015625)"/>
      <path id="SourceHanSansCN-Regular-34" d="M 2176 0 
L 2726 0 
L 2726 1293 
L 3354 1293 
L 3354 1760 
L 2726 1760 
L 2726 4691 
L 2080 4691 
L 128 1677 
L 128 1293 
L 2176 1293 
L 2176 0 
z
M 2176 1760 
L 736 1760 
L 1805 3360 
C 1939 3590 2067 3827 2182 4051 
L 2208 4051 
C 2195 3814 2176 3430 2176 3200 
L 2176 1760 
z
" transform="scale(0.015625)"/>
     </defs>
     <use xlink:href="#SourceHanSansCN-Regular-31"/>
     <use xlink:href="#SourceHanSansCN-Regular-38" x="55.499985"/>
     <use xlink:href="#SourceHanSansCN-Regular-34" x="110.999969"/>
    </g>
   </g>
   <g id="text_15">
    <!-- 45 -->
    <g transform="translate(89.132102 243.310766) scale(0.1 -0.1)">
     <use xlink:href="#SourceHanSansCN-Regular-34"/>
     <use xlink:href="#SourceHanSansCN-Regular-35" x="55.499985"/>
    </g>
   </g>
   <g id="text_16">
    <!-- 22 -->
    <g transform="translate(104.024512 274.990766) scale(0.1 -0.1)">
     <use xlink:href="#SourceHanSansCN-Regular-32"/>
     <use xlink:href="#SourceHanSansCN-Regular-32" x="55.499985"/>
    </g>
   </g>
   <g id="text_17">
    <!-- 7 -->
    <g transform="translate(121.691922 295.651636) scale(0.1 -0.1)">
     <use xlink:href="#SourceHanSansCN-Regular-37"/>
    </g>
   </g>
   <g id="text_18">
    <!-- 7 -->
    <g transform="translate(136.584333 295.651636) scale(0.1 -0.1)">
     <use xlink:href="#SourceHanSansCN-Regular-37"/>
    </g>
   </g>
   <g id="text_19">
    <!-- 3 -->
    <g transform="translate(151.476743 301.161201) scale(0.1 -0.1)">
     <defs>
      <path id="SourceHanSansCN-Regular-33" d="M 1683 -83 
C 2522 -83 3194 416 3194 1254 
C 3194 1901 2752 2310 2202 2445 
L 2202 2477 
C 2701 2650 3034 3034 3034 3603 
C 3034 4346 2458 4774 1664 4774 
C 1126 4774 710 4538 358 4218 
L 672 3846 
C 941 4115 1267 4301 1645 4301 
C 2138 4301 2438 4006 2438 3558 
C 2438 3053 2112 2662 1139 2662 
L 1139 2214 
C 2227 2214 2598 1843 2598 1274 
C 2598 736 2208 403 1645 403 
C 1114 403 762 659 486 941 
L 186 563 
C 493 224 954 -83 1683 -83 
z
" transform="scale(0.015625)"/>
     </defs>
     <use xlink:href="#SourceHanSansCN-Regular-33"/>
    </g>
   </g>
   <g id="text_20">
    <!-- 3 -->
    <g transform="translate(166.369153 301.161201) scale(0.1 -0.1)">
     <use xlink:href="#SourceHanSansCN-Regular-33"/>
    </g>
   </g>
   <g id="text_21">
    <!-- 2 -->
    <g transform="translate(181.261564 302.538592) scale(0.1 -0.1)">
     <use xlink:href="#SourceHanSansCN-Regular-32"/>
    </g>
   </g>
   <g id="text_22">
    <!-- 4 -->
    <g transform="translate(196.153974 299.78381) scale(0.1 -0.1)">
     <use xlink:href="#SourceHanSansCN-Regular-34"/>
    </g>
   </g>
   <g id="text_23">
    <!-- 1 -->
    <g transform="translate(211.046384 303.915984) scale(0.1 -0.1)">
     <use xlink:href="#SourceHanSansCN-Regular-31"/>
    </g>
   </g>
   <g id="text_24">
    <!-- 1 -->
    <g transform="translate(225.938795 303.915984) scale(0.1 -0.1)">
     <use xlink:href="#SourceHanSansCN-Regular-31"/>
    </g>
   </g>
   <g id="text_25">
    <!-- 2 -->
    <g transform="translate(240.831205 302.538592) scale(0.1 -0.1)">
     <use xlink:href="#SourceHanSansCN-Regular-32"/>
    </g>
   </g>
   <g id="text_26">
    <!-- 0 -->
    <g transform="translate(255.723616 305.293375) scale(0.1 -0.1)">
     <use xlink:href="#SourceHanSansCN-Regular-30"/>
    </g>
   </g>
   <g id="text_27">
    <!-- 0 -->
    <g transform="translate(270.616026 305.293375) scale(0.1 -0.1)">
     <use xlink:href="#SourceHanSansCN-Regular-30"/>
    </g>
   </g>
   <g id="text_28">
    <!-- 0 -->
    <g transform="translate(285.508436 305.293375) scale(0.1 -0.1)">
     <use xlink:href="#SourceHanSansCN-Regular-30"/>
    </g>
   </g>
   <g id="text_29">
    <!-- 1 -->
    <g transform="translate(300.400847 303.915984) scale(0.1 -0.1)">
     <use xlink:href="#SourceHanSansCN-Regular-31"/>
    </g>
   </g>
   <g id="text_30">
    <!-- 2 -->
    <g transform="translate(315.293257 302.538592) scale(0.1 -0.1)">
     <use xlink:href="#SourceHanSansCN-Regular-32"/>
    </g>
   </g>
   <g id="text_31">
    <!-- 0 -->
    <g transform="translate(330.185667 305.293375) scale(0.1 -0.1)">
     <use xlink:href="#SourceHanSansCN-Regular-30"/>
    </g>
   </g>
   <g id="text_32">
    <!-- 0 -->
    <g transform="translate(345.078078 305.293375) scale(0.1 -0.1)">
     <use xlink:href="#SourceHanSansCN-Regular-30"/>
    </g>
   </g>
   <g id="text_33">
    <!-- 0 -->
    <g transform="translate(359.970488 305.293375) scale(0.1 -0.1)">
     <use xlink:href="#SourceHanSansCN-Regular-30"/>
    </g>
   </g>
   <g id="text_34">
    <!-- 1 -->
    <g transform="translate(374.862898 303.915984) scale(0.1 -0.1)">
     <use xlink:href="#SourceHanSansCN-Regular-31"/>
    </g>
   </g>
   <g id="text_35">
    <!-- 2 -->
    <g transform="translate(389.755309 302.538592) scale(0.1 -0.1)">
     <use xlink:href="#SourceHanSansCN-Regular-32"/>
    </g>
   </g>
   <g id="text_36">
    <!-- OS 2024 讨论区点赞数量统计 -->
    <g transform="translate(158.123437 35.472) scale(0.12 -0.12)">
     <defs>
      <path id="SourceHanSansCN-Regular-4f" d="M 2374 -83 
C 3552 -83 4378 858 4378 2362 
C 4378 3866 3552 4774 2374 4774 
C 1197 4774 371 3866 371 2362 
C 371 858 1197 -83 2374 -83 
z
M 2374 435 
C 1530 435 979 1190 979 2362 
C 979 3533 1530 4256 2374 4256 
C 3219 4256 3770 3533 3770 2362 
C 3770 1190 3219 435 2374 435 
z
" transform="scale(0.015625)"/>
      <path id="SourceHanSansCN-Regular-53" d="M 1946 -83 
C 2925 -83 3539 506 3539 1248 
C 3539 1946 3117 2266 2573 2502 
L 1907 2790 
C 1542 2944 1126 3117 1126 3578 
C 1126 3994 1472 4256 2003 4256 
C 2438 4256 2784 4090 3072 3821 
L 3379 4198 
C 3053 4538 2560 4774 2003 4774 
C 1152 4774 525 4256 525 3533 
C 525 2848 1043 2515 1478 2330 
L 2150 2035 
C 2598 1837 2938 1683 2938 1197 
C 2938 742 2573 435 1952 435 
C 1466 435 992 666 659 1018 
L 307 608 
C 710 186 1280 -83 1946 -83 
z
" transform="scale(0.015625)"/>
      <path id="SourceHanSansCN-Regular-20" transform="scale(0.015625)"/>
      <path id="SourceHanSansCN-Regular-8ba8" d="M 2963 2643 
C 3264 2176 3584 1542 3718 1133 
L 4154 1363 
C 4013 1766 3693 2381 3379 2848 
L 2963 2643 
z
M 685 4915 
C 1075 4595 1568 4141 1798 3846 
L 2125 4211 
C 1882 4493 1376 4934 986 5235 
L 685 4915 
z
M 4794 5312 
L 4794 3968 
L 2432 3968 
L 2432 3494 
L 4794 3494 
L 4794 288 
C 4794 154 4742 109 4602 102 
C 4467 102 4019 96 3514 115 
C 3584 -26 3661 -237 3693 -371 
C 4352 -378 4736 -365 4960 -282 
C 5178 -205 5274 -58 5274 288 
L 5274 3494 
L 6138 3494 
L 6138 3968 
L 5274 3968 
L 5274 5312 
L 4794 5312 
z
M 1235 -384 
L 1235 -378 
C 1331 -243 1510 -96 2605 787 
C 2547 877 2470 1056 2432 1190 
L 1741 653 
L 1741 3366 
L 256 3366 
L 256 2899 
L 1280 2899 
L 1280 582 
C 1280 269 1082 58 973 -38 
C 1050 -109 1184 -282 1235 -384 
z
" transform="scale(0.015625)"/>
      <path id="SourceHanSansCN-Regular-8bba" d="M 685 4915 
C 1075 4595 1568 4141 1798 3846 
L 2125 4211 
C 1882 4493 1376 4934 986 5235 
L 685 4915 
z
M 3981 5389 
C 3667 4621 3008 3680 2016 3021 
C 2125 2944 2272 2771 2342 2662 
C 3142 3226 3731 3930 4147 4627 
C 4621 3885 5306 3142 5914 2714 
C 5990 2835 6144 3008 6253 3091 
C 5587 3501 4819 4307 4384 5062 
L 4499 5299 
L 3981 5389 
z
M 5158 2733 
C 4704 2400 4006 2010 3424 1722 
L 3424 3021 
L 2944 3021 
L 2944 397 
C 2944 -186 3136 -339 3827 -339 
C 3974 -339 5005 -339 5158 -339 
C 5773 -339 5920 -96 5984 794 
C 5850 819 5651 902 5542 986 
C 5504 230 5453 96 5133 96 
C 4902 96 4032 96 3859 96 
C 3488 96 3424 141 3424 390 
L 3424 1235 
C 4064 1523 4883 1946 5478 2330 
L 5158 2733 
z
M 1216 -384 
L 1216 -378 
C 1306 -243 1485 -102 2534 742 
C 2477 832 2400 1018 2355 1146 
L 1722 653 
L 1722 3366 
L 256 3366 
L 256 2899 
L 1261 2899 
L 1261 582 
C 1261 269 1062 58 954 -38 
C 1030 -109 1165 -282 1216 -384 
z
" transform="scale(0.015625)"/>
      <path id="SourceHanSansCN-Regular-533a" d="M 5933 5030 
L 621 5030 
L 621 -320 
L 6093 -320 
L 6093 141 
L 1094 141 
L 1094 4563 
L 5933 4563 
L 5933 5030 
z
M 1658 3744 
C 2157 3334 2714 2848 3232 2362 
C 2688 1811 2074 1325 1446 954 
C 1562 870 1747 685 1830 589 
C 2432 986 3021 1478 3571 2042 
C 4128 1510 4621 992 4941 589 
L 5331 941 
C 4986 1344 4467 1862 3898 2394 
C 4358 2912 4781 3482 5133 4077 
L 4678 4256 
C 4371 3712 3987 3187 3552 2701 
C 3034 3174 2490 3635 2003 4026 
L 1658 3744 
z
" transform="scale(0.015625)"/>
      <path id="SourceHanSansCN-Regular-70b9" d="M 1517 2976 
L 4864 2976 
L 4864 1830 
L 1517 1830 
L 1517 2976 
z
M 2176 819 
C 2259 403 2310 -134 2310 -454 
L 2797 -390 
C 2790 -83 2726 448 2630 858 
L 2176 819 
z
M 3501 813 
C 3686 416 3878 -122 3949 -442 
L 4416 -320 
C 4339 0 4134 518 3936 909 
L 3501 813 
z
M 4806 864 
C 5126 461 5485 -109 5632 -461 
L 6086 -269 
C 5926 83 5555 627 5235 1030 
L 4806 864 
z
M 1133 992 
C 934 518 608 0 269 -294 
L 704 -506 
C 1056 -166 1382 371 1587 870 
L 1133 992 
z
M 1062 3430 
L 1062 1382 
L 5344 1382 
L 5344 3430 
L 3392 3430 
L 3392 4243 
L 5824 4243 
L 5824 4698 
L 3392 4698 
L 3392 5376 
L 2912 5376 
L 2912 3430 
L 1062 3430 
z
" transform="scale(0.015625)"/>
      <path id="SourceHanSansCN-Regular-8d5e" d="M 3334 416 
C 4083 173 5062 -237 5555 -525 
L 5818 -109 
C 5299 179 4314 563 3578 781 
L 3334 416 
z
M 1229 2566 
L 1229 538 
L 1702 538 
L 1702 2150 
L 4710 2150 
L 4710 563 
L 5210 563 
L 5210 2566 
L 1229 2566 
z
M 2944 1798 
L 2944 1338 
C 2944 762 2560 230 614 -102 
C 710 -192 851 -397 896 -512 
C 2912 -147 3418 544 3418 1318 
L 3418 1798 
L 2944 1798 
z
M 1920 2726 
C 2016 2790 2176 2842 3181 3098 
C 3174 3181 3174 3328 3187 3430 
L 2406 3245 
L 2406 3827 
L 3091 3827 
L 3091 4173 
L 2093 4173 
L 2093 4602 
L 2931 4602 
L 2931 4941 
L 2093 4941 
L 2093 5382 
L 1651 5382 
L 1651 4941 
L 1203 4941 
L 1312 5274 
L 915 5331 
C 838 5050 698 4698 474 4429 
C 582 4390 736 4307 832 4230 
C 922 4346 998 4474 1062 4602 
L 1651 4602 
L 1651 4173 
L 365 4173 
L 365 3827 
L 1126 3827 
C 1050 3354 838 3066 250 2880 
C 333 2822 448 2675 493 2579 
C 1197 2822 1446 3206 1542 3827 
L 2003 3827 
L 2003 3456 
C 2003 3187 1850 3085 1760 3040 
C 1818 2970 1894 2822 1920 2726 
z
M 3251 4173 
L 3251 3827 
L 3962 3827 
C 3898 3392 3706 3149 3174 2989 
C 3258 2925 3373 2778 3411 2682 
C 4058 2899 4282 3258 4365 3827 
L 4730 3827 
L 4730 3258 
C 4730 2886 4826 2790 5216 2790 
C 5293 2790 5632 2790 5709 2790 
C 5990 2790 6099 2906 6138 3360 
C 6029 3386 5869 3437 5792 3494 
C 5779 3174 5760 3136 5645 3136 
C 5574 3136 5325 3136 5274 3136 
C 5152 3136 5133 3149 5133 3258 
L 5133 3827 
L 6022 3827 
L 6022 4173 
L 4877 4173 
L 4877 4582 
L 5792 4582 
L 5792 4928 
L 4877 4928 
L 4877 5376 
L 4422 5376 
L 4422 4928 
L 3974 4928 
C 4019 5043 4058 5158 4096 5274 
L 3706 5331 
C 3616 5037 3462 4691 3219 4410 
C 3328 4378 3475 4288 3565 4218 
C 3661 4333 3738 4454 3808 4582 
L 4422 4582 
L 4422 4173 
L 3251 4173 
z
" transform="scale(0.015625)"/>
      <path id="SourceHanSansCN-Regular-6570" d="M 2835 5254 
C 2720 5005 2515 4627 2355 4403 
L 2669 4250 
C 2835 4461 3053 4781 3238 5075 
L 2835 5254 
z
M 563 5075 
C 730 4806 902 4454 960 4230 
L 1325 4390 
C 1267 4621 1094 4966 915 5216 
L 563 5075 
z
M 2624 1664 
C 2477 1331 2272 1050 2029 806 
C 1786 928 1536 1050 1299 1152 
C 1389 1306 1491 1478 1581 1664 
L 2624 1664 
z
M 704 979 
C 1018 858 1370 698 1690 531 
C 1280 237 787 32 262 -90 
C 346 -179 448 -346 493 -461 
C 1082 -301 1626 -51 2086 320 
C 2298 192 2490 70 2637 -38 
L 2944 275 
C 2797 378 2611 493 2400 608 
C 2739 973 3008 1421 3168 1978 
L 2906 2086 
L 2829 2067 
L 1779 2067 
L 1920 2400 
L 1491 2477 
C 1446 2349 1382 2208 1318 2067 
L 448 2067 
L 448 1664 
L 1120 1664 
C 986 1408 838 1171 704 979 
z
M 1645 5382 
L 1645 4186 
L 320 4186 
L 320 3789 
L 1498 3789 
C 1190 3373 698 2976 250 2784 
C 346 2694 454 2528 512 2419 
C 902 2630 1325 2989 1645 3366 
L 1645 2586 
L 2093 2586 
L 2093 3456 
C 2400 3232 2790 2931 2950 2784 
L 3219 3130 
C 3066 3238 2502 3597 2189 3789 
L 3398 3789 
L 3398 4186 
L 2093 4186 
L 2093 5382 
L 1645 5382 
z
M 4026 5325 
C 3866 4198 3578 3123 3078 2451 
C 3181 2387 3366 2234 3443 2157 
C 3610 2394 3750 2675 3878 2989 
C 4019 2362 4205 1779 4442 1274 
C 4083 666 3584 198 2886 -141 
C 2976 -237 3110 -429 3155 -531 
C 3808 -179 4301 262 4678 826 
C 4998 282 5395 -154 5894 -454 
C 5971 -333 6112 -166 6221 -77 
C 5683 211 5261 678 4934 1267 
C 5274 1926 5491 2726 5632 3686 
L 6067 3686 
L 6067 4134 
L 4243 4134 
C 4333 4493 4410 4870 4467 5254 
L 4026 5325 
z
M 5178 3686 
C 5075 2950 4922 2310 4691 1766 
C 4448 2342 4269 2995 4147 3686 
L 5178 3686 
z
" transform="scale(0.015625)"/>
      <path id="SourceHanSansCN-Regular-91cf" d="M 1600 4256 
L 4781 4256 
L 4781 3904 
L 1600 3904 
L 1600 4256 
z
M 1600 4883 
L 4781 4883 
L 4781 4538 
L 1600 4538 
L 1600 4883 
z
M 1133 5171 
L 1133 3616 
L 5261 3616 
L 5261 5171 
L 1133 5171 
z
M 333 3341 
L 333 2976 
L 6074 2976 
L 6074 3341 
L 333 3341 
z
M 1472 1747 
L 2957 1747 
L 2957 1376 
L 1472 1376 
L 1472 1747 
z
M 3424 1747 
L 4973 1747 
L 4973 1376 
L 3424 1376 
L 3424 1747 
z
M 1472 2387 
L 2957 2387 
L 2957 2029 
L 1472 2029 
L 1472 2387 
z
M 3424 2387 
L 4973 2387 
L 4973 2029 
L 3424 2029 
L 3424 2387 
z
M 301 19 
L 301 -352 
L 6112 -352 
L 6112 19 
L 3424 19 
L 3424 390 
L 5587 390 
L 5587 730 
L 3424 730 
L 3424 1082 
L 5446 1082 
L 5446 2688 
L 1018 2688 
L 1018 1082 
L 2957 1082 
L 2957 730 
L 838 730 
L 838 390 
L 2957 390 
L 2957 19 
L 301 19 
z
" transform="scale(0.015625)"/>
      <path id="SourceHanSansCN-Regular-7edf" d="M 4467 2253 
L 4467 230 
C 4467 -243 4576 -384 5024 -384 
C 5114 -384 5498 -384 5587 -384 
C 5984 -384 6099 -141 6131 730 
C 6010 762 5818 838 5722 928 
C 5702 154 5677 38 5536 38 
C 5459 38 5158 38 5101 38 
C 4960 38 4941 58 4941 230 
L 4941 2253 
L 4467 2253 
z
M 3264 2240 
C 3226 973 3078 288 2029 -102 
C 2138 -192 2272 -371 2330 -493 
C 3488 -19 3686 806 3738 2240 
L 3264 2240 
z
M 269 339 
L 378 -134 
C 954 51 1709 288 2426 525 
L 2349 941 
C 1574 710 787 474 269 339 
z
M 3808 5274 
C 3930 5011 4090 4666 4154 4448 
L 2605 4448 
L 2605 4013 
L 3757 4013 
C 3469 3616 3027 3027 2880 2886 
C 2758 2771 2598 2726 2477 2694 
C 2528 2592 2618 2349 2637 2227 
C 2816 2304 3085 2336 5408 2554 
C 5510 2381 5606 2214 5670 2086 
L 6074 2310 
C 5882 2682 5466 3283 5120 3731 
L 4742 3539 
C 4883 3354 5030 3142 5165 2931 
L 3405 2784 
C 3693 3136 4058 3635 4326 4013 
L 6067 4013 
L 6067 4448 
L 4224 4448 
L 4634 4576 
C 4557 4781 4397 5133 4250 5389 
L 3808 5274 
z
M 384 2707 
C 480 2752 627 2784 1395 2893 
C 1120 2490 870 2176 755 2054 
C 550 1818 403 1658 262 1632 
C 320 1504 397 1267 422 1165 
C 557 1248 774 1318 2362 1664 
C 2349 1766 2342 1952 2355 2086 
L 1146 1850 
C 1632 2413 2112 3098 2515 3789 
L 2086 4045 
C 1965 3808 1830 3565 1683 3341 
L 896 3258 
C 1293 3808 1690 4506 1984 5178 
L 1498 5402 
C 1216 4627 742 3802 589 3590 
C 448 3373 326 3226 211 3200 
C 275 3066 352 2810 384 2707 
z
" transform="scale(0.015625)"/>
      <path id="SourceHanSansCN-Regular-8ba1" d="M 877 4960 
C 1235 4659 1683 4224 1888 3949 
L 2214 4307 
C 1997 4570 1542 4979 1190 5267 
L 877 4960 
z
M 294 3366 
L 294 2893 
L 1312 2893 
L 1312 595 
C 1312 320 1114 128 992 51 
C 1082 -45 1210 -262 1254 -390 
C 1357 -256 1536 -115 2746 742 
C 2694 832 2618 1037 2586 1165 
L 1798 627 
L 1798 3366 
L 294 3366 
z
M 4006 5357 
L 4006 3251 
L 2381 3251 
L 2381 2758 
L 4006 2758 
L 4006 -512 
L 4512 -512 
L 4512 2758 
L 6138 2758 
L 6138 3251 
L 4512 3251 
L 4512 5357 
L 4006 5357 
z
" transform="scale(0.015625)"/>
     </defs>
     <use xlink:href="#SourceHanSansCN-Regular-4f"/>
     <use xlink:href="#SourceHanSansCN-Regular-53" x="74.199982"/>
     <use xlink:href="#SourceHanSansCN-Regular-20" x="133.799973"/>
     <use xlink:href="#SourceHanSansCN-Regular-32" x="156.199966"/>
     <use xlink:href="#SourceHanSansCN-Regular-30" x="211.699951"/>
     <use xlink:href="#SourceHanSansCN-Regular-32" x="267.199936"/>
     <use xlink:href="#SourceHanSansCN-Regular-34" x="322.699921"/>
     <use xlink:href="#SourceHanSansCN-Regular-20" x="378.199905"/>
     <use xlink:href="#SourceHanSansCN-Regular-8ba8" x="400.599899"/>
     <use xlink:href="#SourceHanSansCN-Regular-8bba" x="500.599884"/>
     <use xlink:href="#SourceHanSansCN-Regular-533a" x="600.599869"/>
     <use xlink:href="#SourceHanSansCN-Regular-70b9" x="700.599854"/>
     <use xlink:href="#SourceHanSansCN-Regular-8d5e" x="800.599838"/>
     <use xlink:href="#SourceHanSansCN-Regular-6570" x="900.599823"/>
     <use xlink:href="#SourceHanSansCN-Regular-91cf" x="1000.599808"/>
     <use xlink:href="#SourceHanSansCN-Regular-7edf" x="1100.599792"/>
     <use xlink:href="#SourceHanSansCN-Regular-8ba1" x="1200.599777"/>
    </g>
   </g>
  </g>
 </g>
 <defs>
  <clipPath id="p3b85d28be4">
   <rect x="57.6" y="41.472" width="357.12" height="266.112"/>
  </clipPath>
 </defs>
</svg>
