<?xml version="1.0" encoding="utf-8" standalone="no"?>
<!DOCTYPE svg PUBLIC "-//W3C//DTD SVG 1.1//EN"
  "http://www.w3.org/Graphics/SVG/1.1/DTD/svg11.dtd">
<svg xmlns:xlink="http://www.w3.org/1999/xlink" width="460.8pt" height="345.6pt" viewBox="0 0 460.8 345.6" xmlns="http://www.w3.org/2000/svg" version="1.1">
 <metadata>
  <rdf:RDF xmlns:dc="http://purl.org/dc/elements/1.1/" xmlns:cc="http://creativecommons.org/ns#" xmlns:rdf="http://www.w3.org/1999/02/22-rdf-syntax-ns#">
   <cc:Work>
    <dc:type rdf:resource="http://purl.org/dc/dcmitype/StillImage"/>
    <dc:date>2024-05-06T22:55:27.481734</dc:date>
    <dc:format>image/svg+xml</dc:format>
    <dc:creator>
     <cc:Agent>
      <dc:title>Matplotlib v3.8.3, https://matplotlib.org/</dc:title>
     </cc:Agent>
    </dc:creator>
   </cc:Work>
  </rdf:RDF>
 </metadata>
 <defs>
  <style type="text/css">*{stroke-linejoin: round; stroke-linecap: butt}</style>
 </defs>
 <g id="figure_1">
  <g id="patch_1">
   <path d="M 0 345.6 
L 460.8 345.6 
L 460.8 0 
L 0 0 
z
" style="fill: #ffffff"/>
  </g>
  <g id="axes_1">
   <g id="patch_2">
    <path d="M 342.6048 174.528 
C 342.6048 157.391555 338.46663 140.505851 330.543262 125.311181 
C 322.619894 110.116511 311.143199 97.057534 297.092098 87.248135 
C 283.040997 77.438735 266.826684 71.165978 249.832184 68.964906 
C 232.837683 66.763834 215.560326 68.698861 199.473808 74.604936 
L 236.16 174.528 
z
" style="fill: #1f77b4"/>
   </g>
   <g id="patch_3">
    <path d="M 199.473808 74.604936 
C 174.76884 83.675226 154.284571 101.592994 142.007444 124.871262 
C 129.730317 148.14953 126.511998 175.173484 132.978803 200.683993 
L 236.16 174.528 
z
" style="fill: #ff7f0e"/>
   </g>
   <g id="patch_4">
    <path d="M 132.978803 200.683993 
C 137.148367 217.132256 145.191178 232.347542 156.434265 245.056736 
C 167.677352 257.76593 181.798135 267.604386 197.615079 273.748888 
L 236.16 174.528 
z
" style="fill: #2ca02c"/>
   </g>
   <g id="patch_5">
    <path d="M 197.615079 273.748888 
C 208.878216 278.124344 220.80459 280.550213 232.882024 280.922315 
C 244.959457 281.294417 257.01255 279.607348 268.523682 275.93356 
L 236.16 174.528 
z
" style="fill: #d62728"/>
   </g>
   <g id="patch_6">
    <path d="M 268.523682 275.93356 
C 274.711461 273.958724 280.705516 271.421658 286.430797 268.354128 
C 292.156079 265.286598 297.588591 261.701461 302.660315 257.643604 
L 236.16 174.528 
z
" style="fill: #9467bd"/>
   </g>
   <g id="patch_7">
    <path d="M 302.660315 257.643604 
C 315.12388 247.671577 325.18627 235.022632 332.100366 220.635935 
C 339.014461 206.249239 342.604799 190.489892 342.6048 174.528007 
L 236.16 174.528 
z
" style="fill: #8c564b"/>
   </g>
   <g id="matplotlib.axis_1"/>
   <g id="matplotlib.axis_2"/>
   <g id="text_1">
    <!-- OO hw9 -->
    <g transform="translate(303.185308 81.354523) scale(0.1 -0.1)">
     <defs>
      <path id="SourceHanSansCN-Regular-4f" d="M 2374 -83 
C 3552 -83 4378 858 4378 2362 
C 4378 3866 3552 4774 2374 4774 
C 1197 4774 371 3866 371 2362 
C 371 858 1197 -83 2374 -83 
z
M 2374 435 
C 1530 435 979 1190 979 2362 
C 979 3533 1530 4256 2374 4256 
C 3219 4256 3770 3533 3770 2362 
C 3770 1190 3219 435 2374 435 
z
" transform="scale(0.015625)"/>
      <path id="SourceHanSansCN-Regular-20" transform="scale(0.015625)"/>
      <path id="SourceHanSansCN-Regular-68" d="M 589 0 
L 1178 0 
L 1178 2522 
C 1523 2874 1766 3053 2125 3053 
C 2586 3053 2784 2778 2784 2125 
L 2784 0 
L 3366 0 
L 3366 2202 
C 3366 3085 3034 3565 2304 3565 
C 1830 3565 1472 3302 1152 2982 
L 1178 3699 
L 1178 5094 
L 589 5094 
L 589 0 
z
" transform="scale(0.015625)"/>
      <path id="SourceHanSansCN-Regular-77" d="M 1139 0 
L 1818 0 
L 2310 1862 
C 2400 2195 2470 2522 2547 2874 
L 2579 2874 
C 2662 2522 2726 2202 2816 1875 
L 3315 0 
L 4026 0 
L 4966 3475 
L 4403 3475 
L 3898 1466 
C 3821 1133 3757 819 3686 499 
L 3654 499 
C 3571 819 3494 1133 3411 1466 
L 2867 3475 
L 2298 3475 
L 1754 1466 
C 1670 1133 1594 819 1523 499 
L 1491 499 
C 1421 819 1357 1133 1286 1466 
L 768 3475 
L 173 3475 
L 1139 0 
z
" transform="scale(0.015625)"/>
      <path id="SourceHanSansCN-Regular-39" d="M 1504 -83 
C 2381 -83 3206 646 3206 2547 
C 3206 4038 2528 4774 1626 4774 
C 896 4774 282 4166 282 3251 
C 282 2285 794 1779 1574 1779 
C 1965 1779 2368 2003 2656 2349 
C 2611 896 2086 403 1485 403 
C 1178 403 896 538 691 762 
L 371 397 
C 634 122 992 -83 1504 -83 
z
M 2650 2842 
C 2336 2394 1984 2214 1670 2214 
C 1114 2214 832 2624 832 3251 
C 832 3898 1178 4320 1632 4320 
C 2227 4320 2586 3808 2650 2842 
z
" transform="scale(0.015625)"/>
     </defs>
     <use xlink:href="#SourceHanSansCN-Regular-4f"/>
     <use xlink:href="#SourceHanSansCN-Regular-4f" x="74.199982"/>
     <use xlink:href="#SourceHanSansCN-Regular-20" x="148.399963"/>
     <use xlink:href="#SourceHanSansCN-Regular-68" x="170.799957"/>
     <use xlink:href="#SourceHanSansCN-Regular-77" x="231.499954"/>
     <use xlink:href="#SourceHanSansCN-Regular-39" x="311.699936"/>
    </g>
   </g>
   <g id="text_2">
    <!-- 8h35min -->
    <g transform="translate(252.304415 124.994456) scale(0.1 -0.1)">
     <defs>
      <path id="SourceHanSansCN-Regular-38" d="M 1792 -83 
C 2669 -83 3258 448 3258 1126 
C 3258 1773 2880 2125 2470 2362 
L 2470 2394 
C 2746 2611 3091 3034 3091 3526 
C 3091 4250 2605 4762 1805 4762 
C 1075 4762 518 4282 518 3571 
C 518 3078 813 2726 1152 2490 
L 1152 2464 
C 723 2234 294 1792 294 1165 
C 294 442 922 -83 1792 -83 
z
M 2112 2547 
C 1555 2765 1050 3014 1050 3571 
C 1050 4026 1363 4326 1798 4326 
C 2298 4326 2592 3962 2592 3494 
C 2592 3149 2426 2829 2112 2547 
z
M 1798 352 
C 1235 352 813 717 813 1216 
C 813 1664 1082 2035 1459 2278 
C 2125 2010 2701 1779 2701 1146 
C 2701 678 2342 352 1798 352 
z
" transform="scale(0.015625)"/>
      <path id="SourceHanSansCN-Regular-33" d="M 1683 -83 
C 2522 -83 3194 416 3194 1254 
C 3194 1901 2752 2310 2202 2445 
L 2202 2477 
C 2701 2650 3034 3034 3034 3603 
C 3034 4346 2458 4774 1664 4774 
C 1126 4774 710 4538 358 4218 
L 672 3846 
C 941 4115 1267 4301 1645 4301 
C 2138 4301 2438 4006 2438 3558 
C 2438 3053 2112 2662 1139 2662 
L 1139 2214 
C 2227 2214 2598 1843 2598 1274 
C 2598 736 2208 403 1645 403 
C 1114 403 762 659 486 941 
L 186 563 
C 493 224 954 -83 1683 -83 
z
" transform="scale(0.015625)"/>
      <path id="SourceHanSansCN-Regular-35" d="M 1677 -83 
C 2464 -83 3213 499 3213 1523 
C 3213 2560 2573 3021 1798 3021 
C 1517 3021 1306 2950 1094 2835 
L 1216 4192 
L 2982 4192 
L 2982 4691 
L 704 4691 
L 550 2502 
L 864 2304 
C 1133 2483 1331 2579 1645 2579 
C 2234 2579 2618 2182 2618 1510 
C 2618 826 2176 403 1619 403 
C 1075 403 730 653 467 922 
L 173 538 
C 493 224 941 -83 1677 -83 
z
" transform="scale(0.015625)"/>
      <path id="SourceHanSansCN-Regular-6d" d="M 589 0 
L 1178 0 
L 1178 2522 
C 1491 2880 1786 3053 2048 3053 
C 2490 3053 2694 2778 2694 2125 
L 2694 0 
L 3277 0 
L 3277 2522 
C 3603 2880 3885 3053 4154 3053 
C 4595 3053 4800 2778 4800 2125 
L 4800 0 
L 5382 0 
L 5382 2202 
C 5382 3085 5043 3565 4333 3565 
C 3904 3565 3546 3290 3181 2899 
C 3040 3309 2758 3565 2221 3565 
C 1805 3565 1446 3302 1139 2970 
L 1126 2970 
L 1069 3475 
L 589 3475 
L 589 0 
z
" transform="scale(0.015625)"/>
      <path id="SourceHanSansCN-Regular-69" d="M 589 0 
L 1178 0 
L 1178 3475 
L 589 3475 
L 589 0 
z
M 883 4192 
C 1114 4192 1274 4346 1274 4582 
C 1274 4806 1114 4960 883 4960 
C 653 4960 499 4806 499 4582 
C 499 4346 653 4192 883 4192 
z
" transform="scale(0.015625)"/>
      <path id="SourceHanSansCN-Regular-6e" d="M 589 0 
L 1178 0 
L 1178 2522 
C 1523 2874 1766 3053 2125 3053 
C 2586 3053 2784 2778 2784 2125 
L 2784 0 
L 3366 0 
L 3366 2202 
C 3366 3085 3034 3565 2304 3565 
C 1830 3565 1466 3302 1139 2970 
L 1126 2970 
L 1069 3475 
L 589 3475 
L 589 0 
z
" transform="scale(0.015625)"/>
     </defs>
     <use xlink:href="#SourceHanSansCN-Regular-38"/>
     <use xlink:href="#SourceHanSansCN-Regular-68" x="55.499985"/>
     <use xlink:href="#SourceHanSansCN-Regular-33" x="116.199982"/>
     <use xlink:href="#SourceHanSansCN-Regular-35" x="171.699966"/>
     <use xlink:href="#SourceHanSansCN-Regular-6d" x="227.199951"/>
     <use xlink:href="#SourceHanSansCN-Regular-69" x="319.799942"/>
     <use xlink:href="#SourceHanSansCN-Regular-6e" x="347.299927"/>
    </g>
   </g>
   <g id="text_3">
    <!-- OO hw10 -->
    <g transform="translate(90.320313 122.739963) scale(0.1 -0.1)">
     <defs>
      <path id="SourceHanSansCN-Regular-31" d="M 563 0 
L 3136 0 
L 3136 486 
L 2195 486 
L 2195 4691 
L 1747 4691 
C 1491 4544 1190 4435 774 4358 
L 774 3987 
L 1613 3987 
L 1613 486 
L 563 486 
L 563 0 
z
" transform="scale(0.015625)"/>
      <path id="SourceHanSansCN-Regular-30" d="M 1779 -83 
C 2669 -83 3238 723 3238 2362 
C 3238 3987 2669 4774 1779 4774 
C 883 4774 320 3987 320 2362 
C 320 723 883 -83 1779 -83 
z
M 1779 390 
C 1248 390 883 986 883 2362 
C 883 3731 1248 4314 1779 4314 
C 2310 4314 2675 3731 2675 2362 
C 2675 986 2310 390 1779 390 
z
" transform="scale(0.015625)"/>
     </defs>
     <use xlink:href="#SourceHanSansCN-Regular-4f"/>
     <use xlink:href="#SourceHanSansCN-Regular-4f" x="74.199982"/>
     <use xlink:href="#SourceHanSansCN-Regular-20" x="148.399963"/>
     <use xlink:href="#SourceHanSansCN-Regular-68" x="170.799957"/>
     <use xlink:href="#SourceHanSansCN-Regular-77" x="231.499954"/>
     <use xlink:href="#SourceHanSansCN-Regular-31" x="311.699936"/>
     <use xlink:href="#SourceHanSansCN-Regular-30" x="367.199921"/>
    </g>
   </g>
   <g id="text_4">
    <!-- 6h33min -->
    <g transform="translate(159.253623 147.568332) scale(0.1 -0.1)">
     <defs>
      <path id="SourceHanSansCN-Regular-36" d="M 1926 -83 
C 2656 -83 3277 531 3277 1440 
C 3277 2426 2765 2912 1971 2912 
C 1606 2912 1197 2701 909 2349 
C 934 3802 1466 4294 2118 4294 
C 2400 4294 2682 4154 2861 3936 
L 3194 4294 
C 2931 4576 2579 4774 2093 4774 
C 1184 4774 358 4077 358 2240 
C 358 691 1030 -83 1926 -83 
z
M 922 1882 
C 1229 2317 1587 2477 1875 2477 
C 2445 2477 2720 2074 2720 1440 
C 2720 800 2374 378 1926 378 
C 1338 378 986 909 922 1882 
z
" transform="scale(0.015625)"/>
     </defs>
     <use xlink:href="#SourceHanSansCN-Regular-36"/>
     <use xlink:href="#SourceHanSansCN-Regular-68" x="55.499985"/>
     <use xlink:href="#SourceHanSansCN-Regular-33" x="116.199982"/>
     <use xlink:href="#SourceHanSansCN-Regular-33" x="171.699966"/>
     <use xlink:href="#SourceHanSansCN-Regular-6d" x="227.199951"/>
     <use xlink:href="#SourceHanSansCN-Regular-69" x="319.799942"/>
     <use xlink:href="#SourceHanSansCN-Regular-6e" x="347.299927"/>
    </g>
   </g>
   <g id="text_5">
    <!-- 整理宿舍 -->
    <g transform="translate(108.461691 254.943985) scale(0.1 -0.1)">
     <defs>
      <path id="SourceHanSansCN-Regular-6574" d="M 1357 1139 
L 1357 70 
L 301 70 
L 301 -339 
L 6112 -339 
L 6112 70 
L 3430 70 
L 3430 602 
L 5274 602 
L 5274 973 
L 3430 973 
L 3430 1472 
L 5696 1472 
L 5696 1882 
L 730 1882 
L 730 1472 
L 2957 1472 
L 2957 70 
L 1818 70 
L 1818 1139 
L 1357 1139 
z
M 550 4282 
L 550 3168 
L 1491 3168 
C 1190 2822 691 2483 250 2317 
C 346 2246 467 2106 531 2003 
C 909 2176 1325 2496 1638 2835 
L 1638 2054 
L 2061 2054 
L 2061 2886 
C 2362 2726 2720 2490 2912 2323 
L 3123 2605 
C 2931 2778 2554 3008 2246 3149 
L 2061 2925 
L 2061 3168 
L 3117 3168 
L 3117 4282 
L 2061 4282 
L 2061 4608 
L 3283 4608 
L 3283 4973 
L 2061 4973 
L 2061 5376 
L 1638 5376 
L 1638 4973 
L 365 4973 
L 365 4608 
L 1638 4608 
L 1638 4282 
L 550 4282 
z
M 947 3962 
L 1638 3962 
L 1638 3488 
L 947 3488 
L 947 3962 
z
M 2061 3962 
L 2707 3962 
L 2707 3488 
L 2061 3488 
L 2061 3962 
z
M 4109 4256 
L 5216 4256 
C 5107 3878 4934 3558 4704 3290 
C 4435 3590 4237 3930 4109 4256 
z
M 4090 5376 
C 3910 4730 3590 4128 3168 3744 
C 3264 3667 3424 3501 3494 3418 
C 3629 3546 3750 3699 3872 3872 
C 4006 3578 4186 3277 4422 3002 
C 4090 2714 3667 2496 3174 2336 
C 3264 2253 3405 2074 3456 1984 
C 3942 2170 4365 2400 4710 2701 
C 5024 2400 5414 2144 5882 1965 
C 5939 2080 6067 2259 6157 2342 
C 5696 2490 5312 2720 4998 2989 
C 5299 3334 5530 3750 5677 4256 
L 6093 4256 
L 6093 4659 
L 4301 4659 
C 4390 4858 4461 5069 4525 5280 
L 4090 5376 
z
" transform="scale(0.015625)"/>
      <path id="SourceHanSansCN-Regular-7406" d="M 3046 3456 
L 4026 3456 
L 4026 2630 
L 3046 2630 
L 3046 3456 
z
M 4442 3456 
L 5421 3456 
L 5421 2630 
L 4442 2630 
L 4442 3456 
z
M 3046 4659 
L 4026 4659 
L 4026 3846 
L 3046 3846 
L 3046 4659 
z
M 4442 4659 
L 5421 4659 
L 5421 3846 
L 4442 3846 
L 4442 4659 
z
M 2035 141 
L 2035 -301 
L 6189 -301 
L 6189 141 
L 4480 141 
L 4480 1024 
L 5971 1024 
L 5971 1459 
L 4480 1459 
L 4480 2214 
L 5882 2214 
L 5882 5082 
L 2605 5082 
L 2605 2214 
L 3987 2214 
L 3987 1459 
L 2528 1459 
L 2528 1024 
L 3987 1024 
L 3987 141 
L 2035 141 
z
M 224 640 
L 346 154 
C 909 339 1645 589 2336 819 
L 2253 1286 
L 1549 1050 
L 1549 2643 
L 2195 2643 
L 2195 3091 
L 1549 3091 
L 1549 4493 
L 2291 4493 
L 2291 4941 
L 294 4941 
L 294 4493 
L 1088 4493 
L 1088 3091 
L 358 3091 
L 358 2643 
L 1088 2643 
L 1088 902 
C 762 800 467 710 224 640 
z
" transform="scale(0.015625)"/>
      <path id="SourceHanSansCN-Regular-5bbf" d="M 2739 5280 
C 2816 5133 2899 4960 2970 4800 
L 538 4800 
L 538 3731 
L 1011 3731 
L 1011 4384 
L 5402 4384 
L 5402 3840 
L 5894 3840 
L 5894 4800 
L 3552 4800 
C 3469 4992 3341 5229 3238 5414 
L 2739 5280 
z
M 2477 2643 
L 2477 -518 
L 2938 -518 
L 2938 -154 
L 5165 -154 
L 5165 -486 
L 5651 -486 
L 5651 2643 
L 4083 2643 
L 4288 3283 
L 5978 3283 
L 5978 3718 
L 2214 3718 
L 2214 3283 
L 3757 3283 
C 3718 3072 3661 2842 3610 2643 
L 2477 2643 
z
M 2938 1075 
L 5165 1075 
L 5165 269 
L 2938 269 
L 2938 1075 
z
M 2938 1478 
L 2938 2227 
L 5165 2227 
L 5165 1478 
L 2938 1478 
z
M 1715 4045 
C 1370 3258 813 2496 211 1997 
C 307 1901 461 1677 518 1581 
C 736 1773 954 2003 1158 2259 
L 1158 -512 
L 1619 -512 
L 1619 2899 
C 1824 3219 2010 3558 2157 3904 
L 1715 4045 
z
" transform="scale(0.015625)"/>
      <path id="SourceHanSansCN-Regular-820d" d="M 3219 5421 
C 2541 4608 1331 3827 243 3386 
C 358 3283 486 3123 557 3008 
C 922 3174 1299 3373 1670 3597 
L 1670 3334 
L 2944 3334 
L 2944 2701 
L 634 2701 
L 634 2266 
L 2944 2266 
L 2944 1581 
L 1190 1581 
L 1190 -506 
L 1670 -506 
L 1670 -218 
L 4730 -218 
L 4730 -499 
L 5229 -499 
L 5229 1581 
L 3443 1581 
L 3443 2266 
L 5786 2266 
L 5786 2701 
L 3443 2701 
L 3443 3334 
L 4749 3334 
L 4749 3603 
C 5101 3405 5478 3226 5869 3059 
C 5933 3200 6067 3373 6189 3482 
C 5158 3859 4243 4320 3494 5062 
L 3616 5203 
L 3219 5421 
z
M 1920 3757 
C 2381 4064 2822 4403 3200 4768 
C 3610 4365 4032 4038 4493 3757 
L 1920 3757 
z
M 1670 218 
L 1670 1152 
L 4730 1152 
L 4730 218 
L 1670 218 
z
" transform="scale(0.015625)"/>
     </defs>
     <use xlink:href="#SourceHanSansCN-Regular-6574"/>
     <use xlink:href="#SourceHanSansCN-Regular-7406" x="99.999985"/>
     <use xlink:href="#SourceHanSansCN-Regular-5bbf" x="199.999969"/>
     <use xlink:href="#SourceHanSansCN-Regular-820d" x="299.999954"/>
    </g>
   </g>
   <g id="text_6">
    <!-- 4h15min -->
    <g transform="translate(167.909715 219.679617) scale(0.1 -0.1)">
     <defs>
      <path id="SourceHanSansCN-Regular-34" d="M 2176 0 
L 2726 0 
L 2726 1293 
L 3354 1293 
L 3354 1760 
L 2726 1760 
L 2726 4691 
L 2080 4691 
L 128 1677 
L 128 1293 
L 2176 1293 
L 2176 0 
z
M 2176 1760 
L 736 1760 
L 1805 3360 
C 1939 3590 2067 3827 2182 4051 
L 2208 4051 
C 2195 3814 2176 3430 2176 3200 
L 2176 1760 
z
" transform="scale(0.015625)"/>
     </defs>
     <use xlink:href="#SourceHanSansCN-Regular-34"/>
     <use xlink:href="#SourceHanSansCN-Regular-68" x="55.499985"/>
     <use xlink:href="#SourceHanSansCN-Regular-31" x="116.199982"/>
     <use xlink:href="#SourceHanSansCN-Regular-35" x="171.699966"/>
     <use xlink:href="#SourceHanSansCN-Regular-6d" x="227.199951"/>
     <use xlink:href="#SourceHanSansCN-Regular-69" x="319.799942"/>
     <use xlink:href="#SourceHanSansCN-Regular-6e" x="347.299927"/>
    </g>
   </g>
   <g id="text_7">
    <!-- OS Lab4 -->
    <g transform="translate(194.144851 294.396122) scale(0.1 -0.1)">
     <defs>
      <path id="SourceHanSansCN-Regular-53" d="M 1946 -83 
C 2925 -83 3539 506 3539 1248 
C 3539 1946 3117 2266 2573 2502 
L 1907 2790 
C 1542 2944 1126 3117 1126 3578 
C 1126 3994 1472 4256 2003 4256 
C 2438 4256 2784 4090 3072 3821 
L 3379 4198 
C 3053 4538 2560 4774 2003 4774 
C 1152 4774 525 4256 525 3533 
C 525 2848 1043 2515 1478 2330 
L 2150 2035 
C 2598 1837 2938 1683 2938 1197 
C 2938 742 2573 435 1952 435 
C 1466 435 992 666 659 1018 
L 307 608 
C 710 186 1280 -83 1946 -83 
z
" transform="scale(0.015625)"/>
      <path id="SourceHanSansCN-Regular-4c" d="M 646 0 
L 3290 0 
L 3290 506 
L 1235 506 
L 1235 4691 
L 646 4691 
L 646 0 
z
" transform="scale(0.015625)"/>
      <path id="SourceHanSansCN-Regular-61" d="M 1389 -83 
C 1818 -83 2208 141 2541 416 
L 2560 416 
L 2611 0 
L 3091 0 
L 3091 2138 
C 3091 3002 2739 3565 1888 3565 
C 1325 3565 838 3315 525 3110 
L 749 2707 
C 1024 2893 1389 3078 1792 3078 
C 2362 3078 2509 2650 2509 2202 
C 1030 2035 378 1658 378 902 
C 378 275 806 -83 1389 -83 
z
M 1555 390 
C 1210 390 941 544 941 941 
C 941 1389 1338 1677 2509 1811 
L 2509 845 
C 2170 544 1888 390 1555 390 
z
" transform="scale(0.015625)"/>
      <path id="SourceHanSansCN-Regular-62" d="M 2118 -83 
C 2912 -83 3629 602 3629 1792 
C 3629 2867 3142 3565 2246 3565 
C 1856 3565 1472 3347 1152 3078 
L 1178 3699 
L 1178 5094 
L 589 5094 
L 589 0 
L 1056 0 
L 1107 358 
L 1133 358 
C 1434 83 1798 -83 2118 -83 
z
M 2022 410 
C 1792 410 1478 499 1178 768 
L 1178 2598 
C 1504 2906 1811 3072 2099 3072 
C 2765 3072 3021 2560 3021 1786 
C 3021 928 2598 410 2022 410 
z
" transform="scale(0.015625)"/>
     </defs>
     <use xlink:href="#SourceHanSansCN-Regular-4f"/>
     <use xlink:href="#SourceHanSansCN-Regular-53" x="74.199982"/>
     <use xlink:href="#SourceHanSansCN-Regular-20" x="133.799973"/>
     <use xlink:href="#SourceHanSansCN-Regular-4c" x="156.199966"/>
     <use xlink:href="#SourceHanSansCN-Regular-61" x="210.499954"/>
     <use xlink:href="#SourceHanSansCN-Regular-62" x="266.799942"/>
     <use xlink:href="#SourceHanSansCN-Regular-34" x="328.59993"/>
    </g>
   </g>
   <g id="text_8">
    <!-- 3h2min -->
    <g transform="translate(216.553371 241.198964) scale(0.1 -0.1)">
     <defs>
      <path id="SourceHanSansCN-Regular-32" d="M 282 0 
L 3232 0 
L 3232 506 
L 1933 506 
C 1696 506 1408 480 1165 461 
C 2266 1504 3008 2458 3008 3398 
C 3008 4230 2477 4774 1638 4774 
C 1043 4774 634 4506 256 4090 
L 595 3757 
C 858 4070 1184 4301 1568 4301 
C 2150 4301 2432 3910 2432 3373 
C 2432 2566 1754 1632 282 346 
L 282 0 
z
" transform="scale(0.015625)"/>
     </defs>
     <use xlink:href="#SourceHanSansCN-Regular-33"/>
     <use xlink:href="#SourceHanSansCN-Regular-68" x="55.499985"/>
     <use xlink:href="#SourceHanSansCN-Regular-32" x="116.199982"/>
     <use xlink:href="#SourceHanSansCN-Regular-6d" x="171.699966"/>
     <use xlink:href="#SourceHanSansCN-Regular-69" x="264.299957"/>
     <use xlink:href="#SourceHanSansCN-Regular-6e" x="291.799942"/>
    </g>
   </g>
   <g id="text_9">
    <!-- 离散数学 -->
    <g transform="translate(291.457877 280.571116) scale(0.1 -0.1)">
     <defs>
      <path id="SourceHanSansCN-Regular-79bb" d="M 2765 5293 
C 2842 5139 2918 4954 2989 4787 
L 410 4787 
L 410 4365 
L 6003 4365 
L 6003 4787 
L 3488 4787 
C 3411 4973 3296 5222 3187 5421 
L 2765 5293 
z
M 1888 147 
C 2042 218 2272 250 4218 454 
C 4301 333 4371 218 4422 122 
L 4755 352 
C 4595 627 4256 1082 3981 1414 
L 3661 1216 
L 3974 806 
L 2400 653 
C 2611 902 2816 1184 3008 1485 
L 5254 1485 
L 5254 0 
C 5254 -90 5222 -115 5126 -115 
C 5030 -122 4666 -128 4314 -109 
C 4378 -218 4454 -378 4474 -493 
C 4954 -493 5267 -493 5466 -429 
C 5658 -365 5728 -250 5728 -6 
L 5728 1901 
L 3264 1901 
L 3507 2349 
L 5325 2349 
L 5325 4147 
L 4845 4147 
L 4845 2739 
L 1562 2739 
L 1562 4147 
L 1101 4147 
L 1101 2349 
L 2963 2349 
C 2886 2195 2810 2042 2726 1901 
L 691 1901 
L 691 -506 
L 1158 -506 
L 1158 1485 
L 2483 1485 
C 2330 1242 2195 1050 2125 966 
C 1971 774 1856 640 1728 614 
C 1786 486 1862 243 1888 147 
z
M 4045 4269 
C 3827 4090 3565 3917 3277 3750 
C 2925 3923 2560 4090 2240 4237 
L 2035 4000 
C 2317 3872 2630 3718 2938 3565 
C 2579 3379 2208 3219 1862 3091 
C 1939 3027 2061 2880 2112 2810 
C 2477 2970 2886 3168 3277 3392 
C 3661 3194 4019 2995 4262 2848 
L 4480 3123 
C 4256 3258 3949 3418 3603 3590 
C 3878 3757 4134 3936 4352 4109 
L 4045 4269 
z
" transform="scale(0.015625)"/>
      <path id="SourceHanSansCN-Regular-6563" d="M 2272 5325 
L 2272 4602 
L 1446 4602 
L 1446 5325 
L 1005 5325 
L 1005 4602 
L 358 4602 
L 358 4198 
L 1005 4198 
L 1005 3437 
L 256 3437 
L 256 3021 
L 3386 3021 
L 3386 3437 
L 2720 3437 
L 2720 4198 
L 3373 4198 
L 3373 4602 
L 2720 4602 
L 2720 5325 
L 2272 5325 
z
M 1446 4198 
L 2272 4198 
L 2272 3437 
L 1446 3437 
L 1446 4198 
z
M 1158 1395 
L 2560 1395 
L 2560 941 
L 1158 941 
L 1158 1395 
z
M 1158 1766 
L 1158 2214 
L 2560 2214 
L 2560 1766 
L 1158 1766 
z
M 710 2592 
L 710 -512 
L 1158 -512 
L 1158 570 
L 2560 570 
L 2560 -6 
C 2560 -77 2541 -102 2464 -102 
C 2387 -109 2138 -109 1862 -96 
C 1920 -211 1984 -384 2003 -499 
C 2394 -499 2650 -499 2810 -435 
C 2970 -358 3014 -237 3014 -13 
L 3014 2592 
L 710 2592 
z
M 4154 3738 
L 5242 3738 
C 5133 2938 4966 2246 4704 1670 
C 4448 2266 4262 2950 4141 3686 
L 4154 3738 
z
M 4026 5376 
C 3872 4294 3590 3232 3130 2547 
C 3232 2458 3398 2253 3462 2150 
C 3616 2381 3757 2650 3878 2944 
C 4019 2298 4205 1696 4442 1178 
C 4109 634 3654 211 3040 -109 
C 3130 -211 3277 -416 3322 -525 
C 3898 -198 4346 205 4691 704 
C 4998 192 5376 -230 5856 -518 
C 5933 -384 6086 -198 6195 -109 
C 5683 166 5280 602 4966 1152 
C 5344 1850 5568 2701 5722 3738 
L 6150 3738 
L 6150 4186 
L 4275 4186 
C 4365 4550 4442 4922 4499 5306 
L 4026 5376 
z
" transform="scale(0.015625)"/>
      <path id="SourceHanSansCN-Regular-6570" d="M 2835 5254 
C 2720 5005 2515 4627 2355 4403 
L 2669 4250 
C 2835 4461 3053 4781 3238 5075 
L 2835 5254 
z
M 563 5075 
C 730 4806 902 4454 960 4230 
L 1325 4390 
C 1267 4621 1094 4966 915 5216 
L 563 5075 
z
M 2624 1664 
C 2477 1331 2272 1050 2029 806 
C 1786 928 1536 1050 1299 1152 
C 1389 1306 1491 1478 1581 1664 
L 2624 1664 
z
M 704 979 
C 1018 858 1370 698 1690 531 
C 1280 237 787 32 262 -90 
C 346 -179 448 -346 493 -461 
C 1082 -301 1626 -51 2086 320 
C 2298 192 2490 70 2637 -38 
L 2944 275 
C 2797 378 2611 493 2400 608 
C 2739 973 3008 1421 3168 1978 
L 2906 2086 
L 2829 2067 
L 1779 2067 
L 1920 2400 
L 1491 2477 
C 1446 2349 1382 2208 1318 2067 
L 448 2067 
L 448 1664 
L 1120 1664 
C 986 1408 838 1171 704 979 
z
M 1645 5382 
L 1645 4186 
L 320 4186 
L 320 3789 
L 1498 3789 
C 1190 3373 698 2976 250 2784 
C 346 2694 454 2528 512 2419 
C 902 2630 1325 2989 1645 3366 
L 1645 2586 
L 2093 2586 
L 2093 3456 
C 2400 3232 2790 2931 2950 2784 
L 3219 3130 
C 3066 3238 2502 3597 2189 3789 
L 3398 3789 
L 3398 4186 
L 2093 4186 
L 2093 5382 
L 1645 5382 
z
M 4026 5325 
C 3866 4198 3578 3123 3078 2451 
C 3181 2387 3366 2234 3443 2157 
C 3610 2394 3750 2675 3878 2989 
C 4019 2362 4205 1779 4442 1274 
C 4083 666 3584 198 2886 -141 
C 2976 -237 3110 -429 3155 -531 
C 3808 -179 4301 262 4678 826 
C 4998 282 5395 -154 5894 -454 
C 5971 -333 6112 -166 6221 -77 
C 5683 211 5261 678 4934 1267 
C 5274 1926 5491 2726 5632 3686 
L 6067 3686 
L 6067 4134 
L 4243 4134 
C 4333 4493 4410 4870 4467 5254 
L 4026 5325 
z
M 5178 3686 
C 5075 2950 4922 2310 4691 1766 
C 4448 2342 4269 2995 4147 3686 
L 5178 3686 
z
" transform="scale(0.015625)"/>
      <path id="SourceHanSansCN-Regular-5b66" d="M 2944 2221 
L 2944 1760 
L 384 1760 
L 384 1306 
L 2944 1306 
L 2944 90 
C 2944 -6 2912 -32 2784 -45 
C 2650 -51 2221 -51 1722 -38 
C 1805 -166 1894 -365 1933 -499 
C 2515 -499 2880 -493 3117 -416 
C 3354 -352 3430 -211 3430 83 
L 3430 1306 
L 6048 1306 
L 6048 1760 
L 3430 1760 
L 3430 2016 
C 4013 2266 4602 2630 5018 3002 
L 4704 3238 
L 4602 3213 
L 1459 3213 
L 1459 2790 
L 4064 2790 
C 3731 2573 3322 2355 2944 2221 
z
M 2714 5274 
C 2906 4979 3110 4582 3200 4314 
L 1792 4314 
L 2035 4435 
C 1926 4685 1658 5043 1414 5312 
L 1018 5133 
C 1222 4890 1453 4557 1574 4314 
L 512 4314 
L 512 3040 
L 973 3040 
L 973 3878 
L 5459 3878 
L 5459 3040 
L 5939 3040 
L 5939 4314 
L 4883 4314 
C 5094 4570 5318 4883 5510 5171 
L 5024 5338 
C 4877 5024 4608 4614 4371 4314 
L 3328 4314 
L 3661 4442 
C 3578 4717 3354 5126 3136 5434 
L 2714 5274 
z
" transform="scale(0.015625)"/>
     </defs>
     <use xlink:href="#SourceHanSansCN-Regular-79bb"/>
     <use xlink:href="#SourceHanSansCN-Regular-6563" x="99.999985"/>
     <use xlink:href="#SourceHanSansCN-Regular-6570" x="199.999969"/>
     <use xlink:href="#SourceHanSansCN-Regular-5b66" x="299.999954"/>
    </g>
   </g>
   <g id="text_10">
    <!-- 1h38min -->
    <g transform="translate(245.907635 233.658052) scale(0.1 -0.1)">
     <use xlink:href="#SourceHanSansCN-Regular-31"/>
     <use xlink:href="#SourceHanSansCN-Regular-68" x="55.499985"/>
     <use xlink:href="#SourceHanSansCN-Regular-33" x="116.199982"/>
     <use xlink:href="#SourceHanSansCN-Regular-38" x="171.699966"/>
     <use xlink:href="#SourceHanSansCN-Regular-6d" x="227.199951"/>
     <use xlink:href="#SourceHanSansCN-Regular-69" x="319.799942"/>
     <use xlink:href="#SourceHanSansCN-Regular-6e" x="347.299927"/>
    </g>
   </g>
   <g id="text_11">
    <!-- 其他 -->
    <g transform="translate(341.694402 228.081104) scale(0.1 -0.1)">
     <defs>
      <path id="SourceHanSansCN-Regular-5176" d="M 3667 416 
C 4422 134 5184 -211 5632 -486 
L 6074 -166 
C 5574 96 4755 454 4000 717 
L 3667 416 
z
M 2310 755 
C 1862 442 979 70 288 -134 
C 390 -230 531 -397 602 -499 
C 1293 -275 2170 96 2739 454 
L 2310 755 
z
M 4390 5370 
L 4390 4627 
L 2003 4627 
L 2003 5370 
L 1530 5370 
L 1530 4627 
L 531 4627 
L 531 4179 
L 1530 4179 
L 1530 1312 
L 346 1312 
L 346 864 
L 6054 864 
L 6054 1312 
L 4870 1312 
L 4870 4179 
L 5901 4179 
L 5901 4627 
L 4870 4627 
L 4870 5370 
L 4390 5370 
z
M 2003 1312 
L 2003 2016 
L 4390 2016 
L 4390 1312 
L 2003 1312 
z
M 2003 4179 
L 4390 4179 
L 4390 3539 
L 2003 3539 
L 2003 4179 
z
M 2003 3123 
L 4390 3123 
L 4390 2426 
L 2003 2426 
L 2003 3123 
z
" transform="scale(0.015625)"/>
      <path id="SourceHanSansCN-Regular-4ed6" d="M 2547 4736 
L 2547 3046 
L 1734 2733 
L 1920 2304 
L 2547 2547 
L 2547 461 
C 2547 -243 2771 -429 3546 -429 
C 3718 -429 5037 -429 5216 -429 
C 5926 -429 6086 -141 6163 749 
C 6022 781 5830 864 5715 941 
C 5664 186 5600 13 5203 13 
C 4922 13 3782 13 3558 13 
C 3104 13 3021 90 3021 461 
L 3021 2733 
L 3968 3104 
L 3968 915 
L 4422 915 
L 4422 3277 
L 5421 3667 
C 5414 2662 5402 1997 5357 1824 
C 5312 1658 5248 1632 5133 1632 
C 5056 1632 4819 1626 4646 1638 
C 4704 1523 4749 1331 4762 1190 
C 4960 1184 5235 1190 5414 1235 
C 5613 1286 5747 1408 5798 1702 
C 5856 1978 5875 2899 5875 4064 
L 5901 4147 
L 5568 4282 
L 5478 4211 
L 5421 4160 
L 4422 3776 
L 4422 5363 
L 3968 5363 
L 3968 3597 
L 3021 3232 
L 3021 4736 
L 2547 4736 
z
M 1702 5350 
C 1344 4378 749 3418 115 2797 
C 205 2688 339 2445 384 2336 
C 602 2566 819 2829 1024 3117 
L 1024 -499 
L 1498 -499 
L 1498 3859 
C 1747 4294 1971 4755 2150 5216 
L 1702 5350 
z
" transform="scale(0.015625)"/>
     </defs>
     <use xlink:href="#SourceHanSansCN-Regular-5176"/>
     <use xlink:href="#SourceHanSansCN-Regular-4ed6" x="99.999985"/>
    </g>
   </g>
   <g id="text_12">
    <!-- 4h -->
    <g transform="translate(287.914063 205.027136) scale(0.1 -0.1)">
     <use xlink:href="#SourceHanSansCN-Regular-34"/>
     <use xlink:href="#SourceHanSansCN-Regular-68" x="55.499985"/>
    </g>
   </g>
   <g id="text_13">
    <!-- 劳动节学习用时统计 -->
    <g transform="translate(182.16 35.472) scale(0.12 -0.12)">
     <defs>
      <path id="SourceHanSansCN-Regular-52b3" d="M 506 3494 
L 506 2374 
L 979 2374 
L 979 3066 
L 5382 3066 
L 5382 2419 
L 5869 2419 
L 5869 3494 
L 506 3494 
z
M 4083 5376 
L 4083 4781 
L 2310 4781 
L 2310 5376 
L 1818 5376 
L 1818 4781 
L 384 4781 
L 384 4326 
L 1818 4326 
L 1818 3782 
L 2310 3782 
L 2310 4326 
L 4083 4326 
L 4083 3782 
L 4576 3782 
L 4576 4326 
L 6035 4326 
L 6035 4781 
L 4576 4781 
L 4576 5376 
L 4083 5376 
z
M 2694 2861 
C 2675 2586 2656 2330 2624 2093 
L 870 2093 
L 870 1638 
L 2534 1638 
C 2304 774 1766 224 307 -77 
C 403 -179 531 -371 570 -499 
C 2214 -128 2803 563 3046 1638 
L 4934 1638 
C 4864 614 4794 186 4672 64 
C 4602 13 4525 6 4390 6 
C 4237 6 3802 6 3366 45 
C 3462 -83 3520 -282 3539 -429 
C 3962 -448 4378 -454 4589 -442 
C 4813 -429 4960 -384 5088 -243 
C 5274 -45 5357 499 5434 1875 
C 5440 1946 5446 2093 5446 2093 
L 3123 2093 
C 3155 2330 3174 2586 3194 2861 
L 2694 2861 
z
" transform="scale(0.015625)"/>
      <path id="SourceHanSansCN-Regular-52a8" d="M 570 4851 
L 570 4422 
L 3046 4422 
L 3046 4851 
L 570 4851 
z
M 4179 5267 
C 4179 4813 4179 4352 4160 3898 
L 3245 3898 
L 3245 3437 
L 4141 3437 
C 4064 1978 3808 640 2931 -160 
C 3059 -230 3226 -390 3309 -506 
C 4250 390 4525 1850 4614 3437 
L 5568 3437 
C 5498 1165 5414 314 5242 122 
C 5178 45 5107 26 4992 26 
C 4858 26 4518 26 4160 64 
C 4243 -77 4294 -275 4307 -410 
C 4646 -435 4998 -435 5197 -416 
C 5402 -397 5530 -339 5658 -173 
C 5882 109 5958 1018 6048 3654 
C 6048 3725 6048 3898 6048 3898 
L 4634 3898 
C 4646 4352 4653 4813 4653 5267 
L 4179 5267 
z
M 570 282 
L 576 288 
L 576 275 
C 723 365 954 435 2733 838 
L 2854 410 
L 3277 550 
C 3155 998 2867 1760 2624 2336 
L 2227 2227 
C 2355 1926 2483 1574 2598 1242 
L 1075 922 
C 1325 1498 1568 2214 1728 2886 
L 3162 2886 
L 3162 3328 
L 346 3328 
L 346 2886 
L 1235 2886 
C 1069 2138 800 1382 710 1171 
C 602 928 518 755 416 723 
C 474 608 544 378 570 282 
z
" transform="scale(0.015625)"/>
      <path id="SourceHanSansCN-Regular-8282" d="M 627 3110 
L 627 2650 
L 2304 2650 
L 2304 -499 
L 2810 -499 
L 2810 2650 
L 4941 2650 
L 4941 986 
C 4941 890 4902 864 4781 858 
C 4653 851 4218 851 3750 864 
C 3814 717 3878 512 3898 365 
C 4506 365 4902 365 5139 442 
C 5370 525 5434 678 5434 973 
L 5434 3110 
L 627 3110 
z
M 4058 5376 
L 4058 4653 
L 2342 4653 
L 2342 5376 
L 1850 5376 
L 1850 4653 
L 352 4653 
L 352 4192 
L 1850 4192 
L 1850 3456 
L 2342 3456 
L 2342 4192 
L 4058 4192 
L 4058 3456 
L 4557 3456 
L 4557 4192 
L 6054 4192 
L 6054 4653 
L 4557 4653 
L 4557 5376 
L 4058 5376 
z
" transform="scale(0.015625)"/>
      <path id="SourceHanSansCN-Regular-4e60" d="M 1478 3603 
C 2054 3206 2810 2624 3174 2266 
L 3514 2630 
C 3130 2982 2368 3539 1805 3917 
L 1478 3603 
z
M 659 858 
L 832 378 
C 1818 717 3270 1216 4589 1683 
L 4499 2131 
C 3104 1651 1581 1139 659 858 
z
M 762 4909 
L 762 4454 
L 5197 4454 
C 5158 1485 5101 320 4896 96 
C 4832 13 4762 -13 4640 -6 
C 4467 -6 4070 -6 3622 26 
C 3712 -102 3770 -301 3776 -435 
C 4147 -461 4563 -467 4813 -442 
C 5050 -422 5203 -352 5350 -141 
C 5594 186 5645 1267 5683 4634 
C 5683 4704 5683 4909 5683 4909 
L 762 4909 
z
" transform="scale(0.015625)"/>
      <path id="SourceHanSansCN-Regular-7528" d="M 979 4928 
L 979 2605 
C 979 1702 915 570 205 -230 
C 314 -288 506 -448 576 -544 
C 1069 0 1286 736 1382 1453 
L 2989 1453 
L 2989 -454 
L 3475 -454 
L 3475 1453 
L 5203 1453 
L 5203 141 
C 5203 26 5158 -13 5030 -19 
C 4909 -26 4474 -32 4026 -13 
C 4090 -141 4166 -352 4192 -474 
C 4794 -480 5165 -474 5382 -397 
C 5600 -320 5677 -173 5677 141 
L 5677 4928 
L 979 4928 
z
M 1453 4467 
L 2989 4467 
L 2989 3437 
L 1453 3437 
L 1453 4467 
z
M 5203 4467 
L 5203 3437 
L 3475 3437 
L 3475 4467 
L 5203 4467 
z
M 1453 2982 
L 2989 2982 
L 2989 1907 
L 1427 1907 
C 1446 2150 1453 2387 1453 2605 
L 1453 2982 
z
M 5203 2982 
L 5203 1907 
L 3475 1907 
L 3475 2982 
L 5203 2982 
z
" transform="scale(0.015625)"/>
      <path id="SourceHanSansCN-Regular-65f6" d="M 3034 2893 
C 3373 2400 3808 1722 4013 1331 
L 4435 1574 
C 4218 1965 3776 2618 3430 3104 
L 3034 2893 
z
M 2074 2573 
L 2074 1114 
L 979 1114 
L 979 2573 
L 2074 2573 
z
M 2074 3002 
L 979 3002 
L 979 4403 
L 2074 4403 
L 2074 3002 
z
M 518 4838 
L 518 160 
L 979 160 
L 979 678 
L 2522 678 
L 2522 4838 
L 518 4838 
z
M 4890 5344 
L 4890 4096 
L 2816 4096 
L 2816 3622 
L 4890 3622 
L 4890 211 
C 4890 83 4838 38 4710 38 
C 4570 26 4096 26 3597 45 
C 3667 -96 3744 -314 3776 -448 
C 4416 -448 4826 -442 5056 -358 
C 5286 -282 5376 -141 5376 211 
L 5376 3622 
L 6157 3622 
L 6157 4096 
L 5376 4096 
L 5376 5344 
L 4890 5344 
z
" transform="scale(0.015625)"/>
      <path id="SourceHanSansCN-Regular-7edf" d="M 4467 2253 
L 4467 230 
C 4467 -243 4576 -384 5024 -384 
C 5114 -384 5498 -384 5587 -384 
C 5984 -384 6099 -141 6131 730 
C 6010 762 5818 838 5722 928 
C 5702 154 5677 38 5536 38 
C 5459 38 5158 38 5101 38 
C 4960 38 4941 58 4941 230 
L 4941 2253 
L 4467 2253 
z
M 3264 2240 
C 3226 973 3078 288 2029 -102 
C 2138 -192 2272 -371 2330 -493 
C 3488 -19 3686 806 3738 2240 
L 3264 2240 
z
M 269 339 
L 378 -134 
C 954 51 1709 288 2426 525 
L 2349 941 
C 1574 710 787 474 269 339 
z
M 3808 5274 
C 3930 5011 4090 4666 4154 4448 
L 2605 4448 
L 2605 4013 
L 3757 4013 
C 3469 3616 3027 3027 2880 2886 
C 2758 2771 2598 2726 2477 2694 
C 2528 2592 2618 2349 2637 2227 
C 2816 2304 3085 2336 5408 2554 
C 5510 2381 5606 2214 5670 2086 
L 6074 2310 
C 5882 2682 5466 3283 5120 3731 
L 4742 3539 
C 4883 3354 5030 3142 5165 2931 
L 3405 2784 
C 3693 3136 4058 3635 4326 4013 
L 6067 4013 
L 6067 4448 
L 4224 4448 
L 4634 4576 
C 4557 4781 4397 5133 4250 5389 
L 3808 5274 
z
M 384 2707 
C 480 2752 627 2784 1395 2893 
C 1120 2490 870 2176 755 2054 
C 550 1818 403 1658 262 1632 
C 320 1504 397 1267 422 1165 
C 557 1248 774 1318 2362 1664 
C 2349 1766 2342 1952 2355 2086 
L 1146 1850 
C 1632 2413 2112 3098 2515 3789 
L 2086 4045 
C 1965 3808 1830 3565 1683 3341 
L 896 3258 
C 1293 3808 1690 4506 1984 5178 
L 1498 5402 
C 1216 4627 742 3802 589 3590 
C 448 3373 326 3226 211 3200 
C 275 3066 352 2810 384 2707 
z
" transform="scale(0.015625)"/>
      <path id="SourceHanSansCN-Regular-8ba1" d="M 877 4960 
C 1235 4659 1683 4224 1888 3949 
L 2214 4307 
C 1997 4570 1542 4979 1190 5267 
L 877 4960 
z
M 294 3366 
L 294 2893 
L 1312 2893 
L 1312 595 
C 1312 320 1114 128 992 51 
C 1082 -45 1210 -262 1254 -390 
C 1357 -256 1536 -115 2746 742 
C 2694 832 2618 1037 2586 1165 
L 1798 627 
L 1798 3366 
L 294 3366 
z
M 4006 5357 
L 4006 3251 
L 2381 3251 
L 2381 2758 
L 4006 2758 
L 4006 -512 
L 4512 -512 
L 4512 2758 
L 6138 2758 
L 6138 3251 
L 4512 3251 
L 4512 5357 
L 4006 5357 
z
" transform="scale(0.015625)"/>
     </defs>
     <use xlink:href="#SourceHanSansCN-Regular-52b3"/>
     <use xlink:href="#SourceHanSansCN-Regular-52a8" x="99.999985"/>
     <use xlink:href="#SourceHanSansCN-Regular-8282" x="199.999969"/>
     <use xlink:href="#SourceHanSansCN-Regular-5b66" x="299.999954"/>
     <use xlink:href="#SourceHanSansCN-Regular-4e60" x="399.999939"/>
     <use xlink:href="#SourceHanSansCN-Regular-7528" x="499.999924"/>
     <use xlink:href="#SourceHanSansCN-Regular-65f6" x="599.999908"/>
     <use xlink:href="#SourceHanSansCN-Regular-7edf" x="699.999893"/>
     <use xlink:href="#SourceHanSansCN-Regular-8ba1" x="799.999878"/>
    </g>
   </g>
  </g>
 </g>
</svg>
